<?xml version="1.0" encoding="utf-8" ?><svg xmlns="http://www.w3.org/2000/svg" xmlns:xlink="http://www.w3.org/1999/xlink" width="1024" height="1024" viewBox="0 0 1024 1024"><path d="M324.481 168.698C324.986 168.641 325.492 168.595 326 168.566C346.33 167.392 366.301 174.293 381.569 187.768C403.89 207.828 413.755 239.211 415.36 268.487C419.359 341.42 378.687 441.448 330.534 495.347C332.175 501.165 334.526 507.175 339.883 510.554C342.725 512.347 346.087 512.989 349.354 512.096C353.5 510.962 356.805 507.699 358.837 504.01C363.32 495.869 362.177 487.441 359.617 479.019C363.656 481.177 367.776 483.294 371.647 485.742C378.026 489.777 385.816 496.766 387.372 504.497C389.521 515.172 379.881 536.281 374.241 545.017C366.014 557.76 352.839 568.169 337.8 571.331C325.153 573.991 313.568 571.18 302.91 564.13C292.669 556.415 286.595 546.016 282.67 533.95C263.754 542.618 251.21 549.911 229.503 552.335C207.982 554.739 185.87 546.869 169.265 533.411C143.385 512.436 134.256 479.542 130.983 447.74C129.22 430.612 129.938 412.591 131.927 395.5C138.039 340.447 159.98 288.345 195.092 245.504C226.749 206.764 273.648 173.776 324.481 168.698ZM228.519 421.311C229.869 373.441 245.98 322.007 281.529 288.338C288.946 281.361 297.29 275.439 306.323 270.739C311.205 268.466 316.775 265.209 322.149 264.581C323.146 266.196 322.863 269.013 322.531 270.832C315.292 274.11 308.113 277.323 301.371 281.567C275.557 297.813 259.172 323.994 248.591 351.988C240.859 372.8 236.062 394.588 234.337 416.723C245.04 410.752 256.144 404.676 268.802 408.173C279.465 411.119 286.673 419.891 292.866 428.518C314.432 387.328 327.288 342.139 330.635 295.766C331.508 283.662 332.404 270.204 328.597 258.532C327.314 254.598 325.125 250.418 321.288 248.445C319.178 247.359 316.851 247.274 314.529 247.166C289.507 250.319 267.765 270.084 252.889 289.22C224.245 326.067 200.372 398.072 206.098 444.753C206.394 447.105 206.748 449.449 207.158 451.784C212.514 440.181 219.759 430.516 228.519 421.311ZM237.072 482.449C243.778 478.681 250.208 474.091 256.16 469.233C254.062 464.264 251.781 456.5 246.317 454.367C245.291 453.967 244.179 453.717 243.104 453.485C235.8 456.675 231.298 463.865 228.442 471.054C227.117 474.391 225.276 479.613 227.122 483.004C227.741 484.141 228.725 484.818 230.007 484.996C232.475 485.337 234.993 483.587 237.072 482.449Z"/><path d="M806.811 205.185C813.837 203.87 822.468 205.076 829.201 207.289C840.929 211.144 849.923 219.792 855.392 230.744C876.28 272.571 847.516 339.019 833.837 379.929C853.648 353.29 868.93 319.643 875.247 287.009C879.881 263.066 879.547 236.991 865.372 216.074C867.825 218.231 870.17 220.411 872.317 222.879C888.97 242.017 893.802 268.127 891.896 292.842C889.075 329.424 874.851 366.847 846.487 391.169C867.235 422.667 882.359 455.379 883.383 493.791C883.991 516.575 878.492 539.101 862.464 555.943C850.474 568.542 835.081 575.694 818.562 580.442C787.603 589.341 753.604 590.121 721.566 590.75C702.833 591.278 684.093 591.479 665.354 591.353C644.402 591.247 623.42 590.692 602.469 591.124C574.118 591.709 520.731 592.562 500.652 613.861C496.315 618.463 492.636 625.346 492.972 631.779C493.074 633.743 493.836 636.666 495.606 637.835C496.689 638.55 497.088 638.483 498.269 638.276C501.533 635.564 502.461 630.646 503.966 626.825C507.319 618.308 514.259 612.278 522.56 608.733C530.517 605.335 540.215 604.086 548.348 607.58C553.92 609.975 557.806 614.725 560.039 620.263C565.989 635.02 560.873 653.635 554.831 667.496C549.431 679.88 541.343 692.087 528.107 696.937C522.061 699.152 513.543 698.745 507.852 695.861C503.379 693.594 499.078 688.994 497.556 684.161C492.957 669.567 518.509 665.689 525.114 652.111C526.378 649.512 527.18 646.224 526.034 643.436C525.418 641.938 524.012 640.643 522.508 640.062C519.723 638.985 515.045 640.028 512.478 641.379C495.183 650.488 487.13 685.583 481.333 703.37C480.549 709.296 477.571 716.077 475.717 721.803C471.803 733.937 467.776 746.034 463.636 758.093C461.016 765.804 458.053 773.556 456.059 781.452C452.744 781.428 449.416 781.985 446.099 782.107C438.507 782.386 413.183 782.887 406.951 780.998C405.604 780.589 404.92 779.932 404.386 778.624C403.28 775.913 404.086 772.379 404.749 769.649C409 752.16 416.139 734.999 421.576 717.811C431.052 687.853 439.51 657.595 450.157 628.017C448.486 626.721 446.796 625.411 445.315 623.896C442.998 621.526 440.898 618.2 441.137 614.753C441.315 612.186 442.85 610.014 444.795 608.428C452.721 601.962 466.475 602.936 475.918 604.128C465.105 593.682 453.716 581.006 449.857 566.087C447.486 556.92 448.25 547.399 453.191 539.194C458.983 529.575 469.174 523.222 479.847 520.299C504.563 513.53 529.822 515.888 555.043 516.439L627 518.18C674.211 519.541 721.443 520.017 768.671 519.606C782.071 519.356 807.05 521.132 818.647 517.985C823.597 516.642 827.94 512.93 830.321 508.42C835.214 499.152 833.581 484.145 830.476 474.455C829.152 484.068 831.872 496.079 825.779 504.432C824.076 506.768 822.159 508.978 819.168 509.402C818.017 509.161 817.272 508.917 816.461 508.013C814.709 506.059 814.052 503.097 813.716 500.573C812.478 491.265 813.422 480.557 814.087 471.196C815.18 455.816 816.88 440.438 817.639 425.043C812.547 438.647 807.675 452.256 802.958 465.993C799.21 476.907 795.686 488.4 790.909 498.881C789.925 501.041 788.606 503.927 786.544 505.241C779.203 509.916 760.335 508.024 751.431 507.629C746.82 507.424 741.841 507.68 737.358 506.493C735.983 506.129 733.773 505.386 733.128 504.005C731.961 501.507 732.863 497.764 733.519 495.23C736.313 484.446 741.251 473.935 745.168 463.501C752.81 443.147 760.406 422.673 767.452 402.106C775.58 378.382 801.731 306.125 790.316 284.096C788.782 281.136 786.074 278.341 782.779 277.417C778.884 276.325 774.005 278.564 770.681 280.47C756.693 288.495 747.737 304.732 743.723 319.836C741.308 312.992 739.461 306.08 738.565 298.864C735.789 275.873 742.195 252.716 756.394 234.421C768.819 218.604 786.687 207.511 806.811 205.185Z"/><path d="M695.476 624.41C700.005 619.098 704.966 614.4 711.039 610.885C722.101 604.481 737.391 602.624 749.694 606.079C756.461 607.98 762.55 611.939 765.948 618.255C769.43 624.727 769.731 633.349 768.73 640.504C766.705 654.98 759.626 672.741 755.104 686.961L725.28 780.569C715.127 780.878 685.48 782.881 677.696 778.933C674.637 777.382 674.436 773.933 674.681 770.869C675.396 761.921 680.043 752.226 682.849 743.695L700.585 688.821C704.255 677.664 708.866 666.334 711.435 654.887C711.991 652.407 712.518 649.687 711.67 647.214C711.128 645.636 710.173 644.596 708.595 643.974C706.474 643.138 703.53 644.045 701.61 645.012C697.049 647.308 693.927 651.585 691.685 656.057C689.397 660.622 688 665.842 686.414 670.7L678.279 696.035C669.25 724.259 660.458 752.523 650.646 780.49L629.836 780.729C622.9 781.325 609.638 782.097 603.345 779.727C599.931 778.441 600.888 774.524 601.493 771.697C604.05 759.746 609.148 747.784 613.031 736.176L630.446 682.488C633.503 673.337 637.864 663.802 639.764 654.364C640.219 652.101 640.664 648.964 639.394 646.867C638.678 645.684 637.729 645.217 636.404 645.011C630.881 644.15 625.847 648.227 622.774 652.364C614.571 663.407 610.072 682.368 605.816 695.579L586.336 754.112C584.21 760.404 582.824 767.231 580.385 773.345C579.672 775.133 578.576 777.442 576.915 778.546C571.656 782.042 538.849 781.455 531.927 780.053C529.884 779.639 529.106 778.973 528.011 777.291C527.941 774.171 528.833 770.864 529.688 767.877C532.426 758.319 536.026 748.898 539.176 739.456L555.352 690.11C564.544 662.051 572.741 633.359 583 605.693C588.117 606.111 593.462 605.706 598.609 605.726L629.018 606.014C626.62 612.275 624.884 618.837 623.017 625.275C635.866 612.361 645.254 605.555 663.833 604.718C670.073 604.249 677.063 604.751 682.789 607.44C690.215 610.927 692.857 617.176 695.476 624.41Z"/><path d="M442.666 333.25C447.472 333.237 452.27 333.009 457.078 333.05C463.245 333.102 478.355 332.041 482.401 337.244C484.296 339.681 484.203 343.684 483.854 346.561C482.709 355.982 478.164 366.828 475.309 376.009C469.793 394.025 464.183 412.012 458.477 429.969C455.847 438.017 451.841 446.777 450.807 455.181C450.512 457.571 450.386 459.989 452.021 461.951C453.112 463.252 454.692 464.045 456.387 464.143C461.89 464.511 466.334 458.276 468.774 454.039C475.265 442.768 478.422 428.337 482.267 415.932L497.095 368.261C499.687 359.66 503.65 341.107 510.658 335.742C515.283 332.201 546.439 332.931 553.157 333.825C555.42 334.126 559.147 334.946 560.355 337.178C561.599 339.478 560.877 343.756 560.39 346.277C558.781 354.596 555.557 362.832 552.884 370.86C548.754 383.074 544.76 395.335 540.903 407.638C535.913 424.251 530.304 440.662 524.951 457.16C521.954 466.395 518.019 476.108 516.828 485.767C518.252 489.795 520.981 492.299 523.196 495.815C524.025 497.131 524.26 498.21 523.828 499.753C522.972 502.805 520.188 504.884 517.497 506.275C508.851 510.742 496.806 510.792 487.705 507.755C478.25 504.6 473.988 498.5 469.741 489.997C468.158 492.488 466.399 494.947 464.464 497.177C456.475 506.387 445.304 511.63 433.197 512.413C422.116 513.13 410.52 510.731 402.018 503.178C395.509 497.396 391.888 489.207 391.366 480.571C390.225 461.691 403.335 428.53 409.363 409.74C413.252 397.617 416.764 385.384 420.611 373.252C422.742 366.534 427.158 359.244 426.47 352.023C426.206 349.249 423.483 347.368 421.486 345.795C422.037 342.521 422.483 339.418 424.879 336.924C429.13 332.498 437.011 333.341 442.666 333.25Z"/><path d="M370.737 601.684C372.188 601.477 373.734 601.516 375.2 601.479C387.872 601.154 400.799 604.172 410.137 613.203C421.63 624.318 425.158 640.777 425.475 656.215C426.274 695.071 410.197 738.367 382.999 766.415C371.099 778.687 356.579 786.364 339.257 786.567C327.658 786.819 315.237 782.022 306.087 775.081C294.356 766.183 287.036 752.994 285.103 738.464C280.531 704.085 294.585 662.493 315.643 635.383C330.124 616.74 347.042 604.646 370.737 601.684ZM341.859 731.505C349.431 729.064 353.136 723.972 356.649 717.158C362.787 705.25 375.477 670.717 371.064 658.354C370.643 657.176 370.003 656.058 368.818 655.514C368.373 655.31 368.066 655.234 367.573 655.078C358.249 658.398 352.919 668.708 348.928 677.137C343.479 688.641 333.438 714.611 338.14 726.844C338.949 728.95 340.06 730.201 341.859 731.505Z"/><path d="M361.416 680.177C361.701 681.192 361.547 682.127 361.34 683.133C360.394 687.735 357.306 702.792 353.684 705.194L352.191 704.646C351.563 704.002 350.67 703.223 350.414 702.318C348.856 696.817 358.335 684.259 361.416 680.177Z"/><path d="M707.307 333.289C719.091 331.663 734.016 333.136 744.779 338.464C753.495 342.779 759.949 349.802 762.951 359.113C767.448 373.062 764.44 390.22 757.821 403.014C753.768 410.848 747.282 416.938 738.744 419.527C731.111 421.842 719.93 422.01 712.855 417.814C709.261 415.682 706.146 411.052 705.28 406.998C703.046 396.529 716.344 395.174 720.599 387.978C721.465 386.514 721.783 384.991 721.237 383.343C720.466 381.017 718.161 378.518 715.953 377.488C713.883 376.524 711.735 376.714 709.678 377.59C697.822 382.641 691.507 401.454 687.188 412.637C682.706 424.245 673.619 448.276 679.224 460.039C680.354 462.409 682.178 464.283 684.706 465.102C687.762 466.093 691.236 465.43 693.959 463.82C696.733 462.18 699.291 459.371 699.918 456.124C700.239 454.464 699.961 452.811 698.995 451.409C697.219 448.831 694.4 448.279 691.513 447.83L690.775 447.72C696.316 440.594 702.205 437.016 711.105 435.422C717.217 435.045 724.755 434.877 729.735 438.939C733.878 442.318 736.01 446.931 736.445 452.219C737.497 465.008 731.043 479.854 723.025 489.529C713.581 500.926 700.15 506.54 685.647 507.845C669.683 509.282 648.463 509.472 635.445 498.529C626.137 490.704 622.511 479.823 621.48 468.02C618.595 434.981 636.481 383.127 657.543 358.107C670.248 343.014 687.813 334.96 707.307 333.289Z"/><path d="M831.33 604.192C841.348 602.124 856.664 605.308 865.363 610.581C872.495 614.904 877.914 621.906 879.858 630.059C881.523 637.046 880.587 645.207 876.628 651.302C872.764 657.253 865.637 661.669 858.67 662.931C851.754 664.184 845.231 663.001 839.493 658.847C836.571 656.732 834.205 653.76 833.74 650.086C833.467 647.923 833.723 645.744 835.144 644.01C838.773 639.581 849.213 643.158 854.373 642.744C856.323 642.587 857.824 642.255 859.121 640.675C859.624 639.261 859.76 638.162 859.34 636.717C858.627 634.268 856.171 632.248 854.015 631.088C849.949 628.902 844.85 628.151 840.423 629.63C833.946 631.795 831.124 636.024 828.314 641.877C835.992 676.798 874.581 682.779 872.184 731.752C871.472 746.301 866.043 760.787 854.987 770.62C839.177 784.681 819.323 787.987 798.884 786.842C788.267 785.634 778.124 781.778 769.386 775.629C759.477 768.511 752.672 758.391 750.829 746.237C748.974 734.007 751.374 719.587 758.903 709.54C763.97 702.777 771.792 697.978 780.229 696.942C787.311 696.072 793.902 698.823 799.316 703.232C803.191 706.388 807.718 711.115 808.064 716.336C808.629 724.861 791.363 724.937 786.598 730.407C784.789 732.483 784.31 735.077 784.542 737.758C784.791 740.639 785.944 742.988 788.188 744.838C791.167 747.294 795.296 748.044 799.059 747.539C803.801 746.902 808.36 744.498 811.209 740.614C814.31 736.386 815.962 730.696 815.608 725.47C814.44 708.199 799.162 698.568 790.299 685.339C785.782 678.655 782.895 671.005 781.87 663.004C780.112 649.373 782.95 635.237 791.59 624.331C801.483 611.842 815.854 605.903 831.33 604.192Z"/><path d="M507.899 155.275C517.766 155.06 527.438 155.719 536.977 158.408C554.938 163.47 570.618 174.437 579.668 190.99C588.768 207.635 589.519 227.997 584.261 245.982C576.82 271.437 557.361 291.945 534.433 304.41C506.928 319.364 474.814 321.123 445.127 312.241C437.939 309.763 432.534 305.805 426.618 301.146C437.792 303.899 449.697 302.539 460.414 298.615C476.803 292.613 491.045 279.288 498.275 263.406C504.631 249.445 506.029 233.033 500.514 218.551C495.995 206.682 487.415 197.557 475.786 192.464C464.469 187.377 451.581 187.062 440.029 191.591C442.517 187.95 445.265 184.494 448.252 181.251C463.488 164.769 485.705 156.197 507.899 155.275Z"/><path d="M250.107 559.694C258.615 559.08 272.229 558.489 280.497 560.357C283.413 561.016 286.088 562.127 287.625 564.838C288.91 567.106 288.559 569.971 288.099 572.416C286.563 580.576 282.868 588.869 280.153 596.708C275.411 610.407 270.868 624.174 266.527 638.005C274.803 638.127 283.418 637.054 291.605 638.498C294.181 638.952 297.984 639.683 299.449 642.071C300.002 642.971 299.811 643.923 299.499 644.889C297.214 651.959 292.424 658.13 290.055 665.38C279.32 663.676 268.442 663.398 257.601 663.833C250.764 682.902 244.136 702.045 237.717 721.259C233.15 734.955 228.887 748.828 223.921 762.38C222.794 766.327 221.728 770.656 219.953 774.358C218.575 777.231 216.632 779.443 213.546 780.483C208.626 782.142 174.369 782.62 170.017 779.529C168.969 778.784 168.735 778.361 168.576 777.104C168.35 775.327 168.659 773.219 169.113 771.493C172.022 760.445 176.013 749.503 179.65 738.679L195.602 690.766C204.715 663.076 214.012 635.448 223.494 607.883C227.486 596.179 231.034 584.202 235.374 572.638C236.498 569.644 237.758 565.625 239.912 563.204C242.668 560.107 246.265 559.961 250.107 559.694Z"/><path d="M587.116 333.758C595.112 334.372 629.476 331.586 633.948 336.765C636.864 340.142 635.209 348.779 634.426 352.83C631.169 369.7 624.686 385.708 619.212 401.929C612.972 420.42 607.229 439.086 601.154 457.633C597.731 468.082 593.419 478.462 591.398 489.287C592.264 492.307 594.434 494.663 595.173 497.72C595.646 499.673 596.02 501.882 594.621 503.578C592.167 506.551 585.677 507.068 582.106 507.426C571.258 507.439 547.217 509.463 537.801 505.612C535.031 504.48 534.3 501.832 533.31 499.283C537.14 483.796 542.594 468.782 547.499 453.621C554.251 432.751 560.784 411.799 567.782 391.011C569.878 384.783 579.163 361.053 579.503 356.966C579.999 350.987 574.754 348.519 574.227 343.539C573.979 341.201 575.141 338.811 576.72 337.132C579.518 334.158 583.316 333.969 587.116 333.758Z"/><path d="M676.586 155.796C688.81 154.898 702.309 156.853 713.117 162.909C726.127 170.199 735.069 182.223 739.005 196.554C744.794 217.632 739.46 239.47 728.752 258.035C717.143 278.162 695.876 296.77 673.175 302.932C671.931 301.324 675.304 295.55 676.03 293.711C681.768 279.183 683.735 262.66 682.655 247.13C681.325 228.004 674.935 206.156 659.898 193.21C647.848 182.836 634.632 182.39 619.521 183.585C634.636 165.989 653.698 157.63 676.586 155.796Z"/><path d="M636.276 227.701C644.038 227.64 652.043 229.626 658.205 234.506C666.013 240.689 670.448 250.487 671.505 260.25C673.057 274.584 668.383 289.82 659.358 301.022C650.953 311.454 640.218 317.153 626.99 318.52C617.982 318.214 609.741 316.289 602.601 310.531C594.403 303.92 590.223 294.072 589.209 283.754C587.835 269.779 592.284 256.32 601.209 245.542C610.207 234.675 622.407 229.015 636.276 227.701Z"/><path d="M873.886 761.939L874.333 762.545C875.308 772.682 870.219 788.354 865.441 797.239C856.928 813.068 840.146 823.577 823.272 828.564C805.21 833.901 780.957 833.361 764.161 824.162C756.152 819.776 751.186 813.241 748.647 804.547C745.881 793.611 747.078 781.931 746.578 770.753C749.473 774.646 752.596 778.205 756.391 781.246C772.464 794.127 796.593 799.368 816.766 797.021C843.739 793.882 857.707 782.487 873.886 761.939Z"/><path d="M280.737 754.241C281.515 754.963 281.389 754.708 281.797 755.48C283.724 759.124 285.612 762.793 287.78 766.304C297.153 781.484 313.397 790.443 330.431 794.447C349.605 798.953 369.531 796.927 386.358 786.453C391.697 793.331 403.364 806.949 406.007 814.753C406.657 816.674 406.138 817.822 405.317 819.527C399.44 825.369 392.203 828.273 384.152 829.813C360.622 834.315 335.948 830.044 316.123 816.336C294.409 801.322 285.216 779.463 280.737 754.241Z"/><path d="M240.9 767.202C244.947 769.379 266.344 800.568 269.997 806.488C271.791 809.397 273.48 811.775 272.538 815.308C271.523 819.118 268.562 821.762 265.277 823.703C250.789 832.258 232.422 833.134 216.461 828.94C214.365 828.234 212.264 827.423 210.225 826.568C197.228 821.123 187.32 809.16 181.981 796.386C194.549 796.098 215.289 799.059 226.634 793.915C235.359 789.959 237.667 775.464 240.9 767.202Z"/><path d="M411.831 824.371C415.276 825.544 430.651 849.638 432.98 854.331C432.659 856.161 432.182 857.933 431.704 859.727C428.22 863.075 424.099 864.953 419.483 866.226C400.014 871.593 377.062 867.338 359.778 857.374C349.005 852.34 339.523 841.764 331.767 832.966C340.857 835.844 350.235 837.719 359.733 838.558C380.05 840.204 396.07 837.722 411.831 824.371Z"/><path d="M279.259 820.73C283.436 823.767 298.379 845.088 300.048 850.014C300.847 852.373 300.577 854.911 299.386 857.094C296.917 861.619 291.152 863.963 286.421 865.35C268.831 870.507 253.023 866.895 237.284 858.407C226.504 852.234 217.833 843.154 209.368 834.23C221.682 838.047 234.677 839.148 247.457 837.457C259.929 835.722 271.509 831.002 279.259 820.73Z"/><path d="M745.096 813.278C746.47 814.405 747.39 816.63 748.339 818.165C753.158 825.959 758.184 830.529 766.636 834.208C787.52 843.299 815.463 841.909 836.343 833.666C831.977 839.261 826.789 844.287 821.3 848.766C802.304 862.705 781.201 867.838 757.923 868.194C754.109 868.252 749.374 868.314 746.527 865.319C745.106 863.825 744.55 861.859 744.226 859.872C743.265 853.966 743.936 847.511 744.127 841.544L745.096 813.278Z"/><path d="M472.321 784.623C472.92 785.116 472.822 784.978 473.264 785.535C477.731 791.162 480.225 798.379 483.578 804.68C485.418 808.138 487.902 811.489 489.248 815.171C489.893 816.933 490.2 818.8 489.93 820.669C489.621 822.806 488.448 824.426 486.721 825.675C478.08 831.929 445.341 829.948 434.46 828.162C426.757 822.185 417.672 804.268 414.356 794.888C427.727 794.492 447.506 796.635 459.882 794.237C466.657 792.924 468.54 790.003 472.321 784.623Z"/><path d="M735.519 790.548L736.281 791.315C737.381 798.776 737.528 814.298 733.566 820.672C730.722 825.25 724.87 827.627 719.789 828.698C709.028 830.966 686.888 830.978 677.696 825.036C677.364 824.691 677.026 824.35 676.716 823.984C670.37 816.503 671.819 805.018 672.559 795.98C693.363 795.266 716.074 799.775 735.519 790.548Z"/><path d="M600.951 795.161C611.526 796.314 622.285 795.923 632.904 795.873L667.455 796.001C666.564 806.149 669.283 816.987 661.986 825.4C659.326 827.204 656.733 828.134 653.594 828.711C645.384 830.22 615.343 831.445 609.1 826.681C604.198 822.94 601.987 801.575 600.951 795.161Z"/><path d="M589.408 793.072L590.364 793.2C590.493 793.38 590.627 793.557 590.75 793.74C593.258 797.48 597.861 821.013 596.752 825.931C595.936 826.985 595.251 827.627 594.015 828.171C587.72 830.938 559.156 829.922 551.186 828.752C547.577 828.222 544.524 827.267 541.15 825.885C533.122 818.745 531.937 805.362 529.49 795.456C536.202 795.796 542.98 795.7 549.702 795.825C563.208 796.076 576.317 796.991 589.408 793.072Z"/><path d="M495.095 831.343L495.733 831.38C497.5 832.384 498.898 835.064 499.978 836.774C504.18 843.43 512.661 855.683 510.848 863.73C510.016 864.96 509.176 865.577 507.806 866.108C501.422 868.583 467.865 868.378 460.186 867.276C458.25 866.998 456.642 866.38 454.885 865.54C446.816 858.488 441.223 846.208 437.079 836.428C438.284 836.725 439.501 836.973 440.727 837.17C449.765 838.542 474.982 838.722 483.745 836.631C487.995 835.616 491.595 833.986 495.095 831.343Z"/><path d="M731.766 834.534L733.232 834.447L733.813 835.056C734.797 839.594 734.412 859.504 732.606 863.214C731.596 865.29 728.921 866.327 726.847 866.924C718.902 869.211 686.431 869.226 679.786 865.677C679.592 865.46 679.394 865.246 679.204 865.026C673.541 858.47 674.929 845.419 675.611 837.463C694.47 838.005 713.337 839.574 731.766 834.534Z"/><path d="M668.479 835.169C669.063 835.345 668.685 835.18 669.404 835.99C670.464 844.197 670.573 853.92 669.294 862.127C668.685 863.04 668.033 863.898 667.213 864.632C661.527 869.724 636.083 868.525 627.809 867.854C622.69 867.438 618.356 866.654 614.876 862.588C611.906 854.261 610.208 845.727 609.35 836.933C626.848 839.527 651.214 839.099 668.479 835.169Z"/><path d="M542.587 836.381C560.951 838.724 580.432 839.448 598.739 836.289C601.213 844.434 605.141 855.741 603.174 864.076C602.365 865.16 601.444 866.049 600.199 866.608C594.368 869.228 565.314 868.637 558.282 867.601C556.445 867.331 554.779 866.77 553.045 866.119C546.168 859.075 544.302 845.794 542.587 836.381Z"/><path d="M155.61 530.781C159.872 532.613 165.892 539.483 170.339 542.392C190.682 555.702 208.183 558.885 231.644 561.658C228.538 569.671 225.593 577.746 222.811 585.878C222.08 588.867 221.173 591.811 220.305 594.762C200.96 582.69 182.905 567.441 168.799 549.451C164.076 543.426 160.001 537.037 155.61 530.781Z"/><path d="M404.336 518.316C406.143 519.812 407.934 521.329 409.706 522.867C408.309 530.484 406.605 537.884 403.59 545.045C396.002 563.067 382.193 580.543 363.623 587.974C346.26 594.921 326.532 591.675 309.842 584.406C308.505 583.813 306.873 583.24 306.013 582.011C304.774 580.241 306.063 576.943 306.542 575.043C313.476 578.994 320.369 582.879 328.236 584.611C342.818 587.822 358.755 584.331 371.17 576.216C391.411 562.984 399.564 540.988 404.336 518.316Z"/><path d="M374.498 175.439C379.827 175.8 386.91 180.402 391.189 183.37C416.825 201.154 430.992 232.031 437.713 261.674C439.87 271.186 441.048 280.804 442.762 290.391C439.712 288.687 437.184 286.324 434.836 283.767C433.049 276.157 432.477 268.215 431.044 260.523C424.615 226.006 403.327 195.01 374.498 175.439Z"/><path d="M878.56 663.914L879.168 664.142C881.054 670.096 878.056 697.455 877.932 705.935C875.916 701.427 873.84 697.067 871.424 692.754C867.834 685.828 862.149 680.105 858.146 673.417C865.91 671.167 871.897 668.509 878.56 663.914Z"/><path d="M803.721 732.357C804.718 732.428 804.222 732.266 805.152 732.992L804.859 733.869C803.524 735.236 802.391 735.919 800.663 736.72C799.97 736.602 799.589 736.435 798.967 736.132L798.977 735.326C800.297 733.887 801.995 733.195 803.721 732.357Z"/></svg>